# Blender v2.91.0 OBJ File: ''
# www.blender.org
mtllib coneBlender.mtl
o Cone
v 0.000000 -1.000000 -1.000000
v 0.195090 -1.000000 -0.980785
v 0.382683 -1.000000 -0.923880
v 0.555570 -1.000000 -0.831470
v 0.707107 -1.000000 -0.707107
v 0.831470 -1.000000 -0.555570
v 0.923880 -1.000000 -0.382683
v 0.980785 -1.000000 -0.195090
v 1.000000 -1.000000 -0.000000
v 0.980785 -1.000000 0.195090
v 0.923880 -1.000000 0.382683
v 0.831470 -1.000000 0.555570
v 0.707107 -1.000000 0.707107
v 0.555570 -1.000000 0.831470
v 0.382683 -1.000000 0.923880
v 0.195090 -1.000000 0.980785
v -0.000000 -1.000000 1.000000
v -0.195091 -1.000000 0.980785
v -0.382684 -1.000000 0.923879
v -0.555571 -1.000000 0.831469
v -0.707107 -1.000000 0.707106
v -0.831470 -1.000000 0.555570
v -0.923880 -1.000000 0.382683
v -0.980785 -1.000000 0.195089
v -1.000000 -1.000000 -0.000001
v -0.980785 -1.000000 -0.195091
v -0.923879 -1.000000 -0.382684
v -0.831469 -1.000000 -0.555571
v -0.707106 -1.000000 -0.707108
v -0.555569 -1.000000 -0.831470
v -0.382682 -1.000000 -0.923880
v -0.195089 -1.000000 -0.980786
v 0.000000 1.000000 0.000000
v 0.000000 -1.000000 -1.000000
v 0.000000 -1.000000 -1.000000
v 0.195090 -1.000000 -0.980785
v 0.195090 -1.000000 -0.980785
v 0.000000 1.000000 0.000000
v 0.000000 1.000000 0.000000
v 0.000000 1.000000 0.000000
v 0.000000 1.000000 0.000000
v 0.000000 1.000000 0.000000
v 0.000000 1.000000 0.000000
v 0.000000 1.000000 0.000000
v 0.000000 1.000000 0.000000
v 0.000000 1.000000 0.000000
v 0.000000 1.000000 0.000000
v 0.000000 1.000000 0.000000
v 0.000000 1.000000 0.000000
v 0.000000 1.000000 0.000000
v 0.000000 1.000000 0.000000
v 0.000000 1.000000 0.000000
v 0.000000 1.000000 0.000000
v 0.000000 1.000000 0.000000
v 0.000000 1.000000 0.000000
v 0.000000 1.000000 0.000000
v 0.000000 1.000000 0.000000
v 0.000000 1.000000 0.000000
v 0.000000 1.000000 0.000000
v 0.000000 1.000000 0.000000
v 0.000000 1.000000 0.000000
v 0.000000 1.000000 0.000000
v 0.000000 1.000000 0.000000
v 0.000000 1.000000 0.000000
v 0.000000 1.000000 0.000000
v 0.000000 1.000000 0.000000
v 0.000000 1.000000 0.000000
v 0.000000 1.000000 0.000000
v 0.382683 -1.000000 -0.923880
v 0.382683 -1.000000 -0.923880
v 0.555570 -1.000000 -0.831470
v 0.555570 -1.000000 -0.831470
v 0.707107 -1.000000 -0.707107
v 0.707107 -1.000000 -0.707107
v 0.831470 -1.000000 -0.555570
v 0.831470 -1.000000 -0.555570
v 0.923880 -1.000000 -0.382683
v 0.923880 -1.000000 -0.382683
v 0.980785 -1.000000 -0.195090
v 0.980785 -1.000000 -0.195090
v 1.000000 -1.000000 -0.000000
v 1.000000 -1.000000 -0.000000
v 0.980785 -1.000000 0.195090
v 0.980785 -1.000000 0.195090
v 0.923880 -1.000000 0.382683
v 0.923880 -1.000000 0.382683
v 0.831470 -1.000000 0.555570
v 0.831470 -1.000000 0.555570
v 0.707107 -1.000000 0.707107
v 0.707107 -1.000000 0.707107
v 0.555570 -1.000000 0.831470
v 0.555570 -1.000000 0.831470
v 0.382683 -1.000000 0.923880
v 0.382683 -1.000000 0.923880
v 0.195090 -1.000000 0.980785
v 0.195090 -1.000000 0.980785
v -0.000000 -1.000000 1.000000
v -0.000000 -1.000000 1.000000
v -0.195091 -1.000000 0.980785
v -0.195091 -1.000000 0.980785
v -0.382684 -1.000000 0.923879
v -0.382684 -1.000000 0.923879
v -0.555571 -1.000000 0.831469
v -0.555571 -1.000000 0.831469
v -0.707107 -1.000000 0.707106
v -0.707107 -1.000000 0.707106
v -0.831470 -1.000000 0.555570
v -0.831470 -1.000000 0.555570
v -0.923880 -1.000000 0.382683
v -0.923880 -1.000000 0.382683
v -0.980785 -1.000000 0.195089
v -0.980785 -1.000000 0.195089
v -1.000000 -1.000000 -0.000001
v -1.000000 -1.000000 -0.000001
v -0.980785 -1.000000 -0.195091
v -0.980785 -1.000000 -0.195091
v -0.923879 -1.000000 -0.382684
v -0.923879 -1.000000 -0.382684
v -0.831469 -1.000000 -0.555571
v -0.831469 -1.000000 -0.555571
v -0.707106 -1.000000 -0.707108
v -0.707106 -1.000000 -0.707108
v -0.555569 -1.000000 -0.831470
v -0.555569 -1.000000 -0.831470
v -0.382682 -1.000000 -0.923880
v -0.382682 -1.000000 -0.923880
v -0.195089 -1.000000 -0.980786
v -0.195089 -1.000000 -0.980786
vt 0.250000 0.490000
vt 0.250000 0.250000
vt 0.296822 0.485388
vt 0.296822 0.485388
vt 0.250000 0.250000
vt 0.341844 0.471731
vt 0.341844 0.471731
vt 0.250000 0.250000
vt 0.383337 0.449553
vt 0.383337 0.449553
vt 0.250000 0.250000
vt 0.419706 0.419706
vt 0.419706 0.419706
vt 0.250000 0.250000
vt 0.449553 0.383337
vt 0.449553 0.383337
vt 0.250000 0.250000
vt 0.471731 0.341844
vt 0.471731 0.341844
vt 0.250000 0.250000
vt 0.485388 0.296822
vt 0.485388 0.296822
vt 0.250000 0.250000
vt 0.490000 0.250000
vt 0.490000 0.250000
vt 0.250000 0.250000
vt 0.485388 0.203178
vt 0.485388 0.203178
vt 0.250000 0.250000
vt 0.471731 0.158156
vt 0.471731 0.158156
vt 0.250000 0.250000
vt 0.449553 0.116663
vt 0.449553 0.116663
vt 0.250000 0.250000
vt 0.419706 0.080294
vt 0.419706 0.080294
vt 0.250000 0.250000
vt 0.383337 0.050447
vt 0.383337 0.050447
vt 0.250000 0.250000
vt 0.341844 0.028269
vt 0.341844 0.028269
vt 0.250000 0.250000
vt 0.296822 0.014612
vt 0.296822 0.014612
vt 0.250000 0.250000
vt 0.250000 0.010000
vt 0.250000 0.010000
vt 0.250000 0.250000
vt 0.203178 0.014612
vt 0.203178 0.014612
vt 0.250000 0.250000
vt 0.158156 0.028269
vt 0.158156 0.028269
vt 0.250000 0.250000
vt 0.116663 0.050447
vt 0.116663 0.050447
vt 0.250000 0.250000
vt 0.080294 0.080294
vt 0.080294 0.080294
vt 0.250000 0.250000
vt 0.050447 0.116663
vt 0.050447 0.116663
vt 0.250000 0.250000
vt 0.028269 0.158156
vt 0.028269 0.158156
vt 0.250000 0.250000
vt 0.014611 0.203179
vt 0.014611 0.203179
vt 0.250000 0.250000
vt 0.010000 0.250000
vt 0.010000 0.250000
vt 0.250000 0.250000
vt 0.014612 0.296822
vt 0.014612 0.296822
vt 0.250000 0.250000
vt 0.028269 0.341844
vt 0.028269 0.341844
vt 0.250000 0.250000
vt 0.050447 0.383337
vt 0.050447 0.383337
vt 0.250000 0.250000
vt 0.080295 0.419706
vt 0.080295 0.419706
vt 0.250000 0.250000
vt 0.116663 0.449553
vt 0.116663 0.449553
vt 0.250000 0.250000
vt 0.158156 0.471731
vt 0.985388 0.296822
vt 0.796822 0.014612
vt 0.514611 0.203179
vt 0.158156 0.471731
vt 0.250000 0.250000
vt 0.203179 0.485389
vt 0.203179 0.485389
vt 0.250000 0.250000
vt 0.250000 0.490000
vt 0.703179 0.485389
vt 0.750000 0.490000
vt 0.796822 0.485388
vt 0.841844 0.471731
vt 0.883337 0.449553
vt 0.919706 0.419706
vt 0.949553 0.383337
vt 0.971731 0.341844
vt 0.990000 0.250000
vt 0.985388 0.203178
vt 0.971731 0.158156
vt 0.949553 0.116663
vt 0.919706 0.080294
vt 0.883337 0.050447
vt 0.841844 0.028269
vt 0.750000 0.010000
vt 0.703178 0.014612
vt 0.658156 0.028269
vt 0.616663 0.050447
vt 0.580294 0.080294
vt 0.550447 0.116663
vt 0.528269 0.158156
vt 0.510000 0.250000
vt 0.514612 0.296822
vt 0.528269 0.341844
vt 0.550447 0.383337
vt 0.580295 0.419706
vt 0.616663 0.449553
vt 0.658156 0.471731
vn 0.0878 0.4455 -0.8910
vn 0.2599 0.4455 -0.8567
vn 0.4220 0.4455 -0.7896
vn 0.5680 0.4455 -0.6921
vn 0.6921 0.4455 -0.5680
vn 0.7896 0.4455 -0.4220
vn 0.8567 0.4455 -0.2599
vn 0.8910 0.4455 -0.0878
vn 0.8910 0.4455 0.0878
vn 0.8567 0.4455 0.2599
vn 0.7896 0.4455 0.4220
vn 0.6921 0.4455 0.5680
vn 0.5680 0.4455 0.6921
vn 0.4220 0.4455 0.7896
vn 0.2599 0.4455 0.8567
vn 0.0878 0.4455 0.8910
vn -0.0878 0.4455 0.8910
vn -0.2599 0.4455 0.8567
vn -0.4220 0.4455 0.7896
vn -0.5680 0.4455 0.6921
vn -0.6921 0.4455 0.5680
vn -0.7896 0.4455 0.4220
vn -0.8567 0.4455 0.2599
vn -0.8910 0.4455 0.0878
vn -0.8910 0.4455 -0.0878
vn -0.8567 0.4455 -0.2599
vn -0.7896 0.4455 -0.4220
vn -0.6921 0.4455 -0.5680
vn -0.5680 0.4455 -0.6921
vn -0.4220 0.4455 -0.7896
vn 0.0000 -1.0000 0.0000
vn -0.2599 0.4455 -0.8567
vn -0.0878 0.4455 -0.8910
usemtl None
s off
f 34/1/1 38/2/1 36/3/1
f 37/4/2 39/5/2 69/6/2
f 70/7/3 40/8/3 71/9/3
f 72/10/4 41/11/4 73/12/4
f 74/13/5 42/14/5 75/15/5
f 76/16/6 43/17/6 77/18/6
f 78/19/7 44/20/7 79/21/7
f 80/22/8 45/23/8 81/24/8
f 82/25/9 46/26/9 83/27/9
f 84/28/10 47/29/10 85/30/10
f 86/31/11 48/32/11 87/33/11
f 88/34/12 49/35/12 89/36/12
f 90/37/13 50/38/13 91/39/13
f 92/40/14 51/41/14 93/42/14
f 94/43/15 52/44/15 95/45/15
f 96/46/16 53/47/16 97/48/16
f 98/49/17 54/50/17 99/51/17
f 100/52/18 55/53/18 101/54/18
f 102/55/19 56/56/19 103/57/19
f 104/58/20 57/59/20 105/60/20
f 106/61/21 58/62/21 107/63/21
f 108/64/22 59/65/22 109/66/22
f 110/67/23 60/68/23 111/69/23
f 112/70/24 61/71/24 113/72/24
f 114/73/25 62/74/25 115/75/25
f 116/76/26 63/77/26 117/78/26
f 118/79/27 64/80/27 119/81/27
f 120/82/28 65/83/28 121/84/28
f 122/85/29 66/86/29 123/87/29
f 124/88/30 67/89/30 125/90/30
f 8/91/31 16/92/31 24/93/31
f 31/94/32 68/95/32 128/96/32
f 32/97/33 33/98/33 1/99/33
f 127/100/31 35/101/31 2/102/31
f 2/102/31 3/103/31 4/104/31
f 4/104/31 5/105/31 6/106/31
f 6/106/31 7/107/31 4/104/31
f 7/107/31 8/91/31 4/104/31
f 8/91/31 9/108/31 10/109/31
f 10/109/31 11/110/31 8/91/31
f 11/110/31 12/111/31 8/91/31
f 12/111/31 13/112/31 16/92/31
f 13/112/31 14/113/31 16/92/31
f 14/113/31 15/114/31 16/92/31
f 16/92/31 17/115/31 18/116/31
f 18/116/31 19/117/31 20/118/31
f 20/118/31 21/119/31 22/120/31
f 22/120/31 23/121/31 24/93/31
f 24/93/31 25/122/31 26/123/31
f 26/123/31 27/124/31 28/125/31
f 28/125/31 29/126/31 127/100/31
f 29/126/31 30/127/31 127/100/31
f 30/127/31 126/128/31 127/100/31
f 127/100/31 2/102/31 4/104/31
f 16/92/31 18/116/31 24/93/31
f 18/116/31 20/118/31 24/93/31
f 20/118/31 22/120/31 24/93/31
f 24/93/31 26/123/31 127/100/31
f 26/123/31 28/125/31 127/100/31
f 127/100/31 4/104/31 8/91/31
f 8/91/31 12/111/31 16/92/31
f 127/100/31 8/91/31 24/93/31
